<svg id="Réteg_1" data-name="Réteg 1" xmlns="http://www.w3.org/2000/svg" viewBox="0 0 216.06 207.2"><defs><style>.cls-1{fill:#f60;}.cls-2,.cls-3,.cls-4{fill:#303030;}.cls-3{font-size:34.82px;}.cls-3,.cls-4{font-family:Bauhaus93, "Bauhaus 93";}.cls-4{font-size:14.48px;}</style></defs><title>logo_uj</title><path class="cls-1" d="M187.09,138.74a125.15,125.15,0,0,0-2-18.21,184.23,184.23,0,0,0-10.36-34.66,325.79,325.79,0,0,0-15.51-33.51,235.3,235.3,0,0,0-19.2-30.75A68,68,0,0,0,128.75,9.45,42.08,42.08,0,0,0,113.4,1.5C108.12,0,102.32-.59,97,.7c-5.57,1.34-9.57,5-13,9.42a270.24,270.24,0,0,0-19.46,29,305.91,305.91,0,0,0-28.42,64c-.59,1.88-1.16,3.78-1.72,5.67q-3.77,11.1-6.43,22.52a128.15,128.15,0,0,0-2.85,15.6c-1.38,8-1.39,16.47,3.41,23.31,5.93,8.48,16.77,11.56,26.58,12.41,12.88,1.13,25.75-1.1,38.64-1.15,12.1-.05,24.15,1.15,36.27,1.21,20.53.09,49.48-3.69,55.63-27.31A59.84,59.84,0,0,0,187.09,138.74Z"/><path class="cls-2" d="M108,207.2,0,20.08H216.06ZM4.18,22.5,108,202.37,211.88,22.5Z"/><polygon class="cls-2" points="107.62 188.3 93.77 163.91 94.56 163.46 107.64 186.51 121.52 163.45 122.29 163.92 107.62 188.3"/><polygon class="cls-2" points="184.58 53.99 183.79 53.54 196.76 30.43 169.85 30.47 169.85 29.56 198.3 29.52 184.58 53.99"/><polygon class="cls-2" points="31.48 53.99 17.76 29.52 46.21 29.56 46.21 30.47 19.3 30.43 32.27 53.54 31.48 53.99"/><text class="cls-3" transform="translate(80.43 53.99)">NET<tspan x="-21.13" y="41.78">GREAT</tspan></text><text/><text/><text class="cls-4" transform="translate(67.4 125.29)">web solution</text><rect class="cls-1" x="92.19" y="149.65" width="31.68" height="12.61"/><polygon class="cls-2" points="113.92 162.02 107.79 158.67 101.55 161.82 102.84 154.96 97.92 150 104.85 149.11 108.04 142.9 111.03 149.21 117.93 150.33 112.85 155.12 113.92 162.02"/></svg>